<mxfile host="app.diagrams.net" agent="Mozilla/5.0 (Windows NT 10.0; Win64; x64) AppleWebKit/537.36 (KHTML, like Gecko) Chrome/141.0.0.0 Safari/537.36 Edg/141.0.0.0" version="28.2.5">
  <diagram name="Página-1" id="olrcjDURVL66J1qGhEUe">
    <mxGraphModel dx="273" dy="151" grid="1" gridSize="10" guides="1" tooltips="1" connect="1" arrows="1" fold="1" page="1" pageScale="1" pageWidth="827" pageHeight="1169" math="0" shadow="0">
      <root>
        <mxCell id="0" />
        <mxCell id="1" parent="0" />
        <mxCell id="XpkNySku3FsEZSMsl5XR-1" value="Inicio" style="ellipse;whiteSpace=wrap;html=1;" vertex="1" parent="1">
          <mxGeometry x="10" y="10" width="120" height="50" as="geometry" />
        </mxCell>
        <mxCell id="XpkNySku3FsEZSMsl5XR-8" style="edgeStyle=orthogonalEdgeStyle;rounded=0;orthogonalLoop=1;jettySize=auto;html=1;entryX=0.5;entryY=0;entryDx=0;entryDy=0;" edge="1" parent="1" source="XpkNySku3FsEZSMsl5XR-2" target="XpkNySku3FsEZSMsl5XR-7">
          <mxGeometry relative="1" as="geometry" />
        </mxCell>
        <mxCell id="XpkNySku3FsEZSMsl5XR-2" value="Escrever &quot;Diz um número: &quot; LER n" style="shape=parallelogram;perimeter=parallelogramPerimeter;whiteSpace=wrap;html=1;fixedSize=1;" vertex="1" parent="1">
          <mxGeometry x="10" y="150" width="250" height="40" as="geometry" />
        </mxCell>
        <mxCell id="XpkNySku3FsEZSMsl5XR-5" style="edgeStyle=orthogonalEdgeStyle;rounded=0;orthogonalLoop=1;jettySize=auto;html=1;entryX=0.5;entryY=0;entryDx=0;entryDy=0;" edge="1" parent="1" source="XpkNySku3FsEZSMsl5XR-3" target="XpkNySku3FsEZSMsl5XR-2">
          <mxGeometry relative="1" as="geometry" />
        </mxCell>
        <mxCell id="XpkNySku3FsEZSMsl5XR-3" value="LER n = 0, loops = 1, times = 0" style="shape=parallelogram;perimeter=parallelogramPerimeter;whiteSpace=wrap;html=1;fixedSize=1;" vertex="1" parent="1">
          <mxGeometry x="30" y="100" width="210" height="20" as="geometry" />
        </mxCell>
        <mxCell id="XpkNySku3FsEZSMsl5XR-4" style="edgeStyle=orthogonalEdgeStyle;rounded=0;orthogonalLoop=1;jettySize=auto;html=1;entryX=0.578;entryY=-0.133;entryDx=0;entryDy=0;entryPerimeter=0;" edge="1" parent="1" source="XpkNySku3FsEZSMsl5XR-1" target="XpkNySku3FsEZSMsl5XR-3">
          <mxGeometry relative="1" as="geometry" />
        </mxCell>
        <mxCell id="XpkNySku3FsEZSMsl5XR-21" style="edgeStyle=orthogonalEdgeStyle;rounded=0;orthogonalLoop=1;jettySize=auto;html=1;entryX=0.5;entryY=0;entryDx=0;entryDy=0;" edge="1" parent="1" source="XpkNySku3FsEZSMsl5XR-7" target="XpkNySku3FsEZSMsl5XR-13">
          <mxGeometry relative="1" as="geometry" />
        </mxCell>
        <mxCell id="XpkNySku3FsEZSMsl5XR-22" value="Sim" style="edgeLabel;html=1;align=center;verticalAlign=middle;resizable=0;points=[];" vertex="1" connectable="0" parent="XpkNySku3FsEZSMsl5XR-21">
          <mxGeometry x="0.2138" relative="1" as="geometry">
            <mxPoint as="offset" />
          </mxGeometry>
        </mxCell>
        <mxCell id="XpkNySku3FsEZSMsl5XR-7" value="(n % loops) == 0&amp;nbsp;" style="rhombus;whiteSpace=wrap;html=1;" vertex="1" parent="1">
          <mxGeometry x="80" y="210" width="110" height="110" as="geometry" />
        </mxCell>
        <mxCell id="XpkNySku3FsEZSMsl5XR-38" style="edgeStyle=orthogonalEdgeStyle;rounded=0;orthogonalLoop=1;jettySize=auto;html=1;entryX=0;entryY=0.5;entryDx=0;entryDy=0;" edge="1" parent="1" source="XpkNySku3FsEZSMsl5XR-9" target="XpkNySku3FsEZSMsl5XR-37">
          <mxGeometry relative="1" as="geometry" />
        </mxCell>
        <mxCell id="XpkNySku3FsEZSMsl5XR-9" value="Escrever &quot;O número é primo!&quot;" style="shape=parallelogram;perimeter=parallelogramPerimeter;whiteSpace=wrap;html=1;fixedSize=1;" vertex="1" parent="1">
          <mxGeometry x="90" y="555" width="230" height="30" as="geometry" />
        </mxCell>
        <mxCell id="XpkNySku3FsEZSMsl5XR-43" style="edgeStyle=orthogonalEdgeStyle;rounded=0;orthogonalLoop=1;jettySize=auto;html=1;entryX=0.5;entryY=1;entryDx=0;entryDy=0;" edge="1" parent="1" source="XpkNySku3FsEZSMsl5XR-13" target="XpkNySku3FsEZSMsl5XR-40">
          <mxGeometry relative="1" as="geometry" />
        </mxCell>
        <mxCell id="XpkNySku3FsEZSMsl5XR-13" value="times++;" style="rounded=0;whiteSpace=wrap;html=1;" vertex="1" parent="1">
          <mxGeometry x="100" y="350" width="70" height="35" as="geometry" />
        </mxCell>
        <mxCell id="XpkNySku3FsEZSMsl5XR-30" style="edgeStyle=orthogonalEdgeStyle;rounded=0;orthogonalLoop=1;jettySize=auto;html=1;" edge="1" parent="1" source="XpkNySku3FsEZSMsl5XR-18" target="XpkNySku3FsEZSMsl5XR-28">
          <mxGeometry relative="1" as="geometry">
            <Array as="points">
              <mxPoint x="330" y="430" />
            </Array>
          </mxGeometry>
        </mxCell>
        <mxCell id="XpkNySku3FsEZSMsl5XR-31" value="Sim" style="edgeLabel;html=1;align=center;verticalAlign=middle;resizable=0;points=[];" vertex="1" connectable="0" parent="XpkNySku3FsEZSMsl5XR-30">
          <mxGeometry x="-0.2327" y="1" relative="1" as="geometry">
            <mxPoint as="offset" />
          </mxGeometry>
        </mxCell>
        <mxCell id="XpkNySku3FsEZSMsl5XR-18" value="loops == n" style="rhombus;whiteSpace=wrap;html=1;" vertex="1" parent="1">
          <mxGeometry x="290" y="240" width="80" height="80" as="geometry" />
        </mxCell>
        <mxCell id="XpkNySku3FsEZSMsl5XR-26" style="edgeStyle=orthogonalEdgeStyle;rounded=0;orthogonalLoop=1;jettySize=auto;html=1;entryX=0.69;entryY=0.199;entryDx=0;entryDy=0;entryPerimeter=0;exitX=0.5;exitY=0;exitDx=0;exitDy=0;" edge="1" parent="1" source="XpkNySku3FsEZSMsl5XR-18" target="XpkNySku3FsEZSMsl5XR-7">
          <mxGeometry relative="1" as="geometry">
            <Array as="points">
              <mxPoint x="330" y="232" />
            </Array>
          </mxGeometry>
        </mxCell>
        <mxCell id="XpkNySku3FsEZSMsl5XR-27" value="Não" style="edgeLabel;html=1;align=center;verticalAlign=middle;resizable=0;points=[];" vertex="1" connectable="0" parent="XpkNySku3FsEZSMsl5XR-26">
          <mxGeometry x="-0.4638" relative="1" as="geometry">
            <mxPoint as="offset" />
          </mxGeometry>
        </mxCell>
        <mxCell id="XpkNySku3FsEZSMsl5XR-35" style="edgeStyle=orthogonalEdgeStyle;rounded=0;orthogonalLoop=1;jettySize=auto;html=1;" edge="1" parent="1" source="XpkNySku3FsEZSMsl5XR-28" target="XpkNySku3FsEZSMsl5XR-34">
          <mxGeometry relative="1" as="geometry">
            <Array as="points">
              <mxPoint x="435" y="500" />
            </Array>
          </mxGeometry>
        </mxCell>
        <mxCell id="XpkNySku3FsEZSMsl5XR-36" value="Não" style="edgeLabel;html=1;align=center;verticalAlign=middle;resizable=0;points=[];" vertex="1" connectable="0" parent="XpkNySku3FsEZSMsl5XR-35">
          <mxGeometry x="-0.3892" relative="1" as="geometry">
            <mxPoint as="offset" />
          </mxGeometry>
        </mxCell>
        <mxCell id="XpkNySku3FsEZSMsl5XR-28" value="times == 2 || n == 1" style="rhombus;whiteSpace=wrap;html=1;" vertex="1" parent="1">
          <mxGeometry x="160" y="400" width="110" height="110" as="geometry" />
        </mxCell>
        <mxCell id="XpkNySku3FsEZSMsl5XR-32" style="edgeStyle=orthogonalEdgeStyle;rounded=0;orthogonalLoop=1;jettySize=auto;html=1;entryX=0.44;entryY=-0.014;entryDx=0;entryDy=0;entryPerimeter=0;" edge="1" parent="1" source="XpkNySku3FsEZSMsl5XR-28" target="XpkNySku3FsEZSMsl5XR-9">
          <mxGeometry relative="1" as="geometry" />
        </mxCell>
        <mxCell id="XpkNySku3FsEZSMsl5XR-33" value="Sim" style="edgeLabel;html=1;align=center;verticalAlign=middle;resizable=0;points=[];" vertex="1" connectable="0" parent="XpkNySku3FsEZSMsl5XR-32">
          <mxGeometry x="0.1427" relative="1" as="geometry">
            <mxPoint as="offset" />
          </mxGeometry>
        </mxCell>
        <mxCell id="XpkNySku3FsEZSMsl5XR-39" style="edgeStyle=orthogonalEdgeStyle;rounded=0;orthogonalLoop=1;jettySize=auto;html=1;entryX=1;entryY=0.5;entryDx=0;entryDy=0;" edge="1" parent="1" source="XpkNySku3FsEZSMsl5XR-34" target="XpkNySku3FsEZSMsl5XR-37">
          <mxGeometry relative="1" as="geometry" />
        </mxCell>
        <mxCell id="XpkNySku3FsEZSMsl5XR-34" value="Escrever &quot;O número não é primo!&quot;" style="shape=parallelogram;perimeter=parallelogramPerimeter;whiteSpace=wrap;html=1;fixedSize=1;" vertex="1" parent="1">
          <mxGeometry x="320" y="555" width="230" height="30" as="geometry" />
        </mxCell>
        <mxCell id="XpkNySku3FsEZSMsl5XR-37" value="Fim" style="ellipse;whiteSpace=wrap;html=1;" vertex="1" parent="1">
          <mxGeometry x="240" y="620" width="100" height="40" as="geometry" />
        </mxCell>
        <mxCell id="XpkNySku3FsEZSMsl5XR-45" style="edgeStyle=orthogonalEdgeStyle;rounded=0;orthogonalLoop=1;jettySize=auto;html=1;entryX=0;entryY=0.5;entryDx=0;entryDy=0;" edge="1" parent="1" source="XpkNySku3FsEZSMsl5XR-40" target="XpkNySku3FsEZSMsl5XR-18">
          <mxGeometry relative="1" as="geometry" />
        </mxCell>
        <mxCell id="XpkNySku3FsEZSMsl5XR-40" value="loops++;" style="rounded=0;whiteSpace=wrap;html=1;" vertex="1" parent="1">
          <mxGeometry x="220" y="300" width="70" height="35" as="geometry" />
        </mxCell>
        <mxCell id="XpkNySku3FsEZSMsl5XR-41" style="edgeStyle=orthogonalEdgeStyle;rounded=0;orthogonalLoop=1;jettySize=auto;html=1;entryX=-0.029;entryY=0.499;entryDx=0;entryDy=0;entryPerimeter=0;" edge="1" parent="1" source="XpkNySku3FsEZSMsl5XR-7" target="XpkNySku3FsEZSMsl5XR-40">
          <mxGeometry relative="1" as="geometry">
            <Array as="points">
              <mxPoint x="200" y="265" />
              <mxPoint x="200" y="317" />
            </Array>
          </mxGeometry>
        </mxCell>
        <mxCell id="XpkNySku3FsEZSMsl5XR-42" value="Não" style="edgeLabel;html=1;align=center;verticalAlign=middle;resizable=0;points=[];" vertex="1" connectable="0" parent="XpkNySku3FsEZSMsl5XR-41">
          <mxGeometry x="0.2315" relative="1" as="geometry">
            <mxPoint as="offset" />
          </mxGeometry>
        </mxCell>
      </root>
    </mxGraphModel>
  </diagram>
</mxfile>
